<?xml version="1.0" encoding="utf-8"?>
<!-- Generator: Adobe Illustrator 22.0.0, SVG Export Plug-In . SVG Version: 6.00 Build 0)  -->
<svg version="1.1" id="Layer_1" xmlns="http://www.w3.org/2000/svg" xmlns:xlink="http://www.w3.org/1999/xlink" x="0px" y="0px"
	 viewBox="0 0 256 256" style="enable-background:new 0 0 256 256;" xml:space="preserve">
<path d="M96.7,57.9c-1.5-1.6-1.4-4.2,0.3-5.7c0.5-0.5,1.1-0.8,1.8-0.9c9.6-2.2,19.4-3.3,29.2-3.3c34.9,0,66.6,13.3,91.7,38.3
	c18.8,18.8,27.3,37.6,27.6,38.4c0.9,2.1,0.9,4.4,0,6.5c-0.4,0.8-8.8,19.6-27.6,38.4c-2.9,2.8-5.8,5.5-8.8,8.1
	c-1.6,1.4-4.1,1.2-5.6-0.4L96.7,57.9z M213.9,210.6c3,3.2,2.8,8.3-0.4,11.3s-8.3,2.8-11.3-0.4c0,0-0.1-0.1-0.1-0.1L180,197.1
	c-16.4,7.2-34.1,10.9-52,10.9c-34.9,0-66.6-13.3-91.7-38.3C17.5,150.8,9,132.1,8.7,131.3c-0.9-2.1-0.9-4.4,0-6.5
	c0.3-0.8,8.8-19.6,27.7-38.4c7.5-7.6,15.9-14.2,25-19.8L42.1,45.4c-3-3.2-2.8-8.3,0.4-11.3s8.3-2.8,11.3,0.4c0,0,0.1,0.1,0.1,0.1
	L213.9,210.6z M148.4,162.4l-52.7-58c-13,17.8-9.1,42.9,8.7,55.9C117.4,169.7,134.7,170.5,148.4,162.4z"/>
</svg>
