<?xml version="1.0" encoding="utf-8"?>
<!-- Generator: Adobe Illustrator 22.0.0, SVG Export Plug-In . SVG Version: 6.00 Build 0)  -->
<svg version="1.1" id="Layer_1" xmlns="http://www.w3.org/2000/svg" xmlns:xlink="http://www.w3.org/1999/xlink" x="0px" y="0px"
	 viewBox="0 0 256 256" style="enable-background:new 0 0 256 256;" xml:space="preserve">
<path d="M247.3,124.8c-0.4-0.8-8.8-19.6-27.6-38.4C194.6,61.3,162.9,48,128,48S61.4,61.3,36.3,86.3C17.5,105.2,9,124,8.7,124.8
	c-0.9,2.1-0.9,4.4,0,6.5c0.4,0.8,8.8,19.6,27.7,38.4C61.4,194.7,93.1,208,128,208s66.6-13.3,91.7-38.3
	c18.8-18.8,27.3-37.6,27.6-38.4C248.2,129.2,248.2,126.8,247.3,124.8z M128,168c-22.1,0-40-17.9-40-40s17.9-40,40-40s40,17.9,40,40
	S150.1,168,128,168z"/>
</svg>
